<?xml version="1.0" encoding="UTF-8" standalone="no"?>
<!-- Created with love by LogoJoy (http://www.logojoy.com/) -->

<svg
   xmlns:dc="http://purl.org/dc/elements/1.1/"
   xmlns:cc="http://creativecommons.org/ns#"
   xmlns:rdf="http://www.w3.org/1999/02/22-rdf-syntax-ns#"
   xmlns:svg="http://www.w3.org/2000/svg"
   xmlns="http://www.w3.org/2000/svg"
   xmlns:xlink="http://www.w3.org/1999/xlink"
   xmlns:sodipodi="http://sodipodi.sourceforge.net/DTD/sodipodi-0.dtd"
   xmlns:inkscape="http://www.inkscape.org/namespaces/inkscape"
   viewBox="0 0 66 66"
   preserveAspectRatio="xMidYMid meet"
   id="aacagcgf"
   version="1.1"
   sodipodi:docname="Icon.svg"
   width="66"
   height="66"
   inkscape:version="0.92.3 (2405546, 2018-03-11)">
  <metadata
     id="metadata31">
    <rdf:RDF>
      <cc:Work
         rdf:about="">
        <dc:format>image/svg+xml</dc:format>
        <dc:type
           rdf:resource="http://purl.org/dc/dcmitype/StillImage" />
        <dc:title></dc:title>
      </cc:Work>
    </rdf:RDF>
  </metadata>
  <sodipodi:namedview
     pagecolor="#ffffff"
     bordercolor="#666666"
     borderopacity="1"
     objecttolerance="10"
     gridtolerance="10"
     guidetolerance="10"
     inkscape:pageopacity="0"
     inkscape:pageshadow="2"
     inkscape:window-width="1366"
     inkscape:window-height="729"
     id="namedview29"
     showgrid="false"
     inkscape:zoom="4.6117647"
     inkscape:cx="30.377144"
     inkscape:cy="33.589719"
     inkscape:window-x="0"
     inkscape:window-y="0"
     inkscape:window-maximized="1"
     inkscape:current-layer="aacagcgf" />
  <defs
     id="SvgjsDefs1001">
    <linearGradient
       id="SvgjsLinearGradient1011">
      <stop
         id="SvgjsStop1012"
         stop-color="#b88746"
         offset="0" />
      <stop
         id="SvgjsStop1013"
         stop-color="#fdf5a6"
         offset="1" />
    </linearGradient>
    <linearGradient
       id="SvgjsLinearGradient1014">
      <stop
         id="SvgjsStop1015"
         stop-color="#b88746"
         offset="0" />
      <stop
         id="SvgjsStop1016"
         stop-color="#fdf5a6"
         offset="1" />
    </linearGradient>
    <linearGradient
       id="SvgjsLinearGradient1017">
      <stop
         id="SvgjsStop1018"
         stop-color="#b88746"
         offset="0" />
      <stop
         id="SvgjsStop1019"
         stop-color="#fdf5a6"
         offset="1" />
    </linearGradient>
    <linearGradient
       gradientUnits="userSpaceOnUse"
       y2="22.982595"
       x2="79.183987"
       y1="22.982595"
       x1="2.0086584"
       gradientTransform="scale(1.2316503,0.81191876)"
       id="linearGradient3770"
       xlink:href="#SvgjsLinearGradient1011"
       inkscape:collect="always" />
    <linearGradient
       gradientUnits="userSpaceOnUse"
       y2="45.717963"
       x2="53.964375"
       y1="45.717963"
       x1="39.593263"
       gradientTransform="scale(1.0419469,0.95974185)"
       id="linearGradient3772"
       xlink:href="#SvgjsLinearGradient1011"
       inkscape:collect="always" />
    <linearGradient
       inkscape:collect="always"
       xlink:href="#SvgjsLinearGradient1011"
       id="linearGradient3818"
       gradientUnits="userSpaceOnUse"
       gradientTransform="scale(1.2316503,0.81191876)"
       x1="2.0086584"
       y1="22.982595"
       x2="79.183987"
       y2="22.982595" />
    <linearGradient
       inkscape:collect="always"
       xlink:href="#SvgjsLinearGradient1011"
       id="linearGradient3820"
       gradientUnits="userSpaceOnUse"
       gradientTransform="scale(1.2316503,0.81191876)"
       x1="2.0086584"
       y1="22.982595"
       x2="79.183987"
       y2="22.982595" />
  </defs>
  <g
     id="SvgjsG1007"
     featurekey="root"
     style="fill:#364699" />
  <g
     style="fill:url(#linearGradient3770)"
     id="SvgjsG1008"
     featurekey="symbol1"
     transform="matrix(0.65567612,0,0,0.65567612,1.0424143,1.5040523)">
    <title
       id="title13">Artboard 1 copy 4</title>
    <g
       style="fill:url(#linearGradient3820)"
       data-name="Layer 2"
       id="g19">
      <path
         style="fill:url(#linearGradient3818)"
         inkscape:connector-curvature="0"
         d="m 97.51,65.52 a 9.6,9.6 0 0 0 -2.08,-3.35 12.09,12.09 0 0 1 -1.61,-2.27 9,9 0 0 1 -0.77,-3.37 20.13,20.13 0 0 1 0,-2.34 3.65,3.65 0 0 0 -0.1,-1.3 10.85,10.85 0 0 0 -1.84,-2.71 l -2.43,-4.82 a 10.1,10.1 0 0 0 -1,-1.66 8.33,8.33 0 0 0 -0.9,-1 8.21,8.21 0 0 1 -0.58,-0.6 10.83,10.83 0 0 1 -1.31,-1.89 37.18,37.18 0 0 1 -3.55,-8.4 1.71,1.71 0 0 0 -0.61,-1 c 0,0 0,0 0,0 h -0.06 v 0 h -0.08 -0.13 v 0 a 1.78,1.78 0 0 0 -0.56,0.18 c -0.3,0.13 -1.08,0.47 -1.34,0.33 A 0.76,0.76 0 0 1 78.38,31.14 16.09,16.09 0 0 1 76,27.7 12.84,12.84 0 0 1 75.46,26.34 c -0.13,-0.38 -0.27,-0.76 -0.43,-1.13 a 11.25,11.25 0 0 0 -8.19,-6.55 h -0.11 a 0.51,0.51 0 0 0 -0.27,0.09 v 0 c -0.61,0.46 -1.26,0.92 -1.94,1.4 a 36.1,36.1 0 0 0 -5.33,4.28 16.63,16.63 0 0 0 -1.52,1.94 c -0.89,1.26 -1.72,2.45 -3,2.86 a 6.28,6.28 0 0 1 -0.86,0.19 c -0.25,0 -0.5,0.09 -0.74,0.15 v 0 c -2.36,0.61 -3.86,2.74 -5.06,4.86 a 14.93,14.93 0 0 0 -1.23,-1.72 22.67,22.67 0 0 0 -3,-2.74 c -1.63,-1.32 -3.17,-2.56 -3.94,-4.35 v -0.06 a 0.22,0.22 0 0 0 -0.05,-0.08 c 0,0 0,0 0,0 v 0 h -0.06 l -0.08,-0.05 v 0 h -0.08 -0.06 -0.12 -0.1 v 0 c 0,0 0,0 -0.06,0 l -0.08,0.06 v 0 c -1.77,1.77 -2.65,4.17 -3.49,6.48 l -0.07,0.19 c -0.72,2 -2.07,4.45 -4.37,4.94 -0.17,0 -0.35,0.06 -0.53,0.09 a 4.37,4.37 0 0 0 -1.28,0.32 4.69,4.69 0 0 0 -2,2.38 c -0.44,0.87 -0.86,1.69 -1.62,1.93 a 3.56,3.56 0 0 1 -1,0.11 5,5 0 0 0 -0.93,0.06 c -1.75,0.3 -2.79,2 -3.35,3.28 -0.14,0.32 -0.26,0.65 -0.39,1 A 8,8 0 0 1 18.53,49 23.68,23.68 0 0 1 16.24,50 c -1.18,0.39 -2.62,2.4 -2.73,2.55 a 3.88,3.88 0 0 0 -1,2 1.15,1.15 0 0 1 -0.07,0.27 c -0.07,0.1 -0.38,0.09 -0.64,0.09 -0.26,0 -0.27,0 -0.4,0 a 3.55,3.55 0 0 0 -2.8,2.27 c -0.1,0.2 -0.19,0.41 -0.28,0.61 a 5.08,5.08 0 0 1 -1.26,2 2.26,2.26 0 0 1 -1.72,0.46 H 5.14 A 1.76,1.76 0 0 0 3.86,60.36 1.83,1.83 0 0 0 3.17,61.5 l -0.68,2.6 a 0.5,0.5 0 0 0 0.36,0.61 H 3 a 0.51,0.51 0 0 0 0.49,-0.37 l 0.68,-2.6 c 0,-0.16 0.12,-0.46 0.24,-0.53 a 1,1 0 0 1 0.58,0 H 5.22 A 3.22,3.22 0 0 0 7.72,60.53 5.9,5.9 0 0 0 9.23,58.2 L 9.5,57.61 c 0.3,-0.64 1,-1.71 1.92,-1.77 0.1,0 0.21,0 0.32,0 a 1.6,1.6 0 0 0 1.47,-0.52 1.68,1.68 0 0 0 0.26,-0.73 2.84,2.84 0 0 1 0.8,-1.42 7.58,7.58 0 0 1 2.28,-2.25 25.1,25.1 0 0 0 2.51,-1.11 0.38,0.38 0 0 0 0.14,-0.11 8.94,8.94 0 0 0 1.69,-3.1 c 0.12,-0.32 0.24,-0.64 0.37,-1 a 6.94,6.94 0 0 1 0.41,-0.82 10.28,10.28 0 0 0 0.41,1.89 1.12,1.12 0 0 0 0,0.13 v 0 l -2,3 a 17,17 0 0 1 -1.54,2 l -0.41,0.41 a 9.6,9.6 0 0 0 -0.69,0.74 c -0.24,0.29 -0.46,0.61 -0.67,0.92 l -0.2,0.31 a 22.77,22.77 0 0 1 -3.1,3.48 c -0.86,0.82 -1.75,1.61 -2.63,2.4 -0.65,0.58 -1.3,1.16 -2,1.72 L 8.47,62.1 a 17.87,17.87 0 0 0 -2.64,2.58 c -0.38,0.5 -0.71,1 -1,1.56 A 9.1,9.1 0 0 1 3,68.69 a 0.49,0.49 0 0 0 -0.07,0.7 0.5,0.5 0 0 0 0.39,0.18 0.45,0.45 0 0 0 0.31,-0.11 9.85,9.85 0 0 0 2,-2.6 c 0.32,-0.52 0.62,-1 1,-1.47 A 16.78,16.78 0 0 1 9.1,63 l 0.38,-0.33 c 0.67,-0.57 1.32,-1.15 2,-1.73 0.89,-0.8 1.78,-1.6 2.65,-2.42 a 24.08,24.08 0 0 0 3.23,-3.65 l 0.21,-0.31 c 0.2,-0.29 0.39,-0.58 0.61,-0.84 a 7.94,7.94 0 0 1 0.63,-0.67 l 0.43,-0.44 a 16.93,16.93 0 0 0 1.64,-2.17 L 22.46,48 A 19.13,19.13 0 0 1 23,50.58 18.18,18.18 0 0 0 20.43,54 16.58,16.58 0 0 1 18.08,57.18 c -0.21,0.21 -0.43,0.4 -0.65,0.6 -0.22,0.2 -0.57,0.5 -0.83,0.78 -0.26,0.28 -0.42,0.46 -0.63,0.69 a 8.26,8.26 0 0 1 -1,1 7,7 0 0 1 -0.84,0.59 c -0.22,0.15 -0.44,0.29 -0.65,0.45 a 13.5,13.5 0 0 0 -3,3.54 l -0.32,0.47 a 48,48 0 0 1 -6,7.19 0.5,0.5 0 0 0 0,0.71 0.48,0.48 0 0 0 0.7,0 48.48,48.48 0 0 0 6.14,-7.33 l 0.32,-0.47 a 12.61,12.61 0 0 1 2.8,-3.3 c 0.19,-0.14 0.4,-0.28 0.6,-0.41 a 9.32,9.32 0 0 0 0.93,-0.66 8.64,8.64 0 0 0 1.07,-1.12 c 0.19,-0.22 0.38,-0.44 0.58,-0.65 0.2,-0.21 0.52,-0.49 0.78,-0.72 l 0.7,-0.64 a 18.32,18.32 0 0 0 2.49,-3.35 20.59,20.59 0 0 1 1.88,-2.68 9.92,9.92 0 0 1 -0.82,5 c -0.09,0.19 -0.2,0.38 -0.3,0.57 v 0 a 32,32 0 0 1 -2.87,3.11 l -0.45,0.45 -0.5,0.49 c -0.4,0.39 -0.81,0.78 -1.18,1.22 a 17.37,17.37 0 0 0 -1.24,1.79 c -0.14,0.22 -0.28,0.44 -0.43,0.66 -0.58,0.89 -1.26,1.76 -1.95,2.64 l -2,2.52 A 25.62,25.62 0 0 1 9.2,72.89 L 9,73.1 a 8.16,8.16 0 0 0 -0.94,1 6.65,6.65 0 0 0 -0.41,0.62 3.28,3.28 0 0 1 -0.77,1 5.26,5.26 0 0 1 -0.47,0.27 2,2 0 0 0 -1.19,1.16 0.49,0.49 0 0 0 0.34,0.61 0.34,0.34 0 0 0 0.14,0 0.49,0.49 0 0 0 0.48,-0.36 c 0.06,-0.2 0.3,-0.34 0.69,-0.54 a 4.83,4.83 0 0 0 0.59,-0.35 4.11,4.11 0 0 0 1,-1.25 c 0.12,-0.18 0.23,-0.37 0.36,-0.54 a 6.73,6.73 0 0 1 0.83,-0.87 l 0.27,-0.26 a 26.11,26.11 0 0 0 2.3,-2.68 l 2,-2.56 c 0.66,-0.85 1.35,-1.73 2,-2.66 0.15,-0.22 0.29,-0.45 0.44,-0.68 a 14.67,14.67 0 0 1 1.16,-1.68 14.67,14.67 0 0 1 1.1,-1.14 l 0.52,-0.5 0.45,-0.45 0.14,-0.14 a 42.22,42.22 0 0 0 -1.52,4.34 29.37,29.37 0 0 1 -2.28,5.84 l -3,3.22 a 8.05,8.05 0 0 0 -1,1.25 7.76,7.76 0 0 0 -0.46,0.91 4.8,4.8 0 0 1 -0.56,1 5.5,5.5 0 0 1 -0.92,0.87 3.85,3.85 0 0 0 -1.51,1.88 0.51,0.51 0 0 0 0.36,0.62 h 0.13 a 0.49,0.49 0 0 0 0.48,-0.37 3,3 0 0 1 1.17,-1.36 6.24,6.24 0 0 0 1.08,-1 6.23,6.23 0 0 0 0.68,-1.23 c 0.13,-0.27 0.25,-0.54 0.4,-0.8 A 7.07,7.07 0 0 1 14,75.16 l 3,-3.26 c 0,0 0,0 0,0 0,0 0,0 0.05,0 a 28.94,28.94 0 0 0 2.4,-6.11 28.92,28.92 0 0 1 2.29,-5.88 C 21.92,59.6 22.11,59.3 22.3,59 c 0.33,-0.54 0.67,-1.09 1,-1.68 1.2,-2.51 1.25,-5.7 0.18,-9.47 0.3,0.16 0.59,0.34 0.89,0.54 a 6.33,6.33 0 0 0 2.07,1 h 0.11 A 0.5,0.5 0 0 0 27,49 a 0.49,0.49 0 0 0 -0.38,-0.59 5.6,5.6 0 0 1 -1.74,-0.88 7.39,7.39 0 0 0 -1.79,-0.92 6.89,6.89 0 0 1 -0.39,-3 2.46,2.46 0 0 1 1.16,-0.61 4.78,4.78 0 0 1 0.77,0 4.28,4.28 0 0 0 1.31,-0.16 4.14,4.14 0 0 0 2.2,-2.42 c 0.19,-0.36 0.38,-0.71 0.58,-1 a 2.89,2.89 0 0 0 0.21,0.49 2.65,2.65 0 0 0 1.08,1 7,7 0 0 0 -1.35,1.61 l -0.14,0.24 a 3.91,3.91 0 0 1 -0.4,0.6 0.82,0.82 0 0 1 -0.55,0.33 0.5,0.5 0 0 0 0,1 v 0 a 1.79,1.79 0 0 0 1.3,-0.68 4.59,4.59 0 0 0 0.51,-0.76 l 0.13,-0.22 a 5.93,5.93 0 0 1 1.41,-1.62 1.72,1.72 0 0 1 0.39,0.31 3.15,3.15 0 0 1 0.33,0.44 c 0.09,0.11 0.17,0.24 0.27,0.36 a 2.8,2.8 0 0 0 -0.54,0.69 3.18,3.18 0 0 0 -0.16,0.32 l -0.09,0.2 a 6,6 0 0 1 -2,1.94 0.5,0.5 0 0 0 0.29,0.91 0.47,0.47 0 0 0 0.28,-0.09 6.83,6.83 0 0 0 2.31,-2.44 l 0.11,-0.23 c 0,-0.09 0.08,-0.18 0.13,-0.27 a 1.76,1.76 0 0 1 0.48,-0.54 1.17,1.17 0 0 0 0.38,0.07 h 0.07 a 0.49,0.49 0 0 0 0.47,-0.52 0.47,0.47 0 0 0 -0.52,-0.48 c -0.23,0 -0.4,-0.24 -0.67,-0.63 A 4.57,4.57 0 0 0 32.03,40.91 4,4 0 0 0 30.83,40.1 L 30.7,40 a 2.1,2.1 0 0 1 -0.9,-0.7 1.45,1.45 0 0 1 -0.23,-0.76 0.5,0.5 0 0 0 0.15,-0.17 3.89,3.89 0 0 1 1,-0.22 l 0.6,-0.1 c 2.75,-0.58 4.29,-3.36 5.1,-5.58 l 0.07,-0.18 a 21.18,21.18 0 0 1 2.33,-5 c 0,0.52 -0.05,1 -0.06,1.55 0,0.14 -0.08,0.33 -0.13,0.57 a 5.3,5.3 0 0 1 -0.32,1.22 l -0.18,0.3 a 4.83,4.83 0 0 0 -0.33,0.64 4.36,4.36 0 0 0 -0.26,1.14 v 0.2 a 10.06,10.06 0 0 1 -3.4,6.09 0.5,0.5 0 0 0 0.33,0.88 0.45,0.45 0 0 0 0.32,-0.13 11,11 0 0 0 3.67,-6.69 v -0.2 a 4.06,4.06 0 0 1 0.2,-0.91 l 0.08,-0.16 c 0.05,1.25 0.14,2.46 0.25,3.63 v 0 a 3.57,3.57 0 0 1 -0.2,1 2.45,2.45 0 0 1 -0.45,0.54 16.76,16.76 0 0 0 -2.42,3.19 0.5,0.5 0 0 0 0.18,0.68 0.48,0.48 0 0 0 0.26,0.07 0.51,0.51 0 0 0 0.43,-0.25 16.17,16.17 0 0 1 2.31,-3 v 0 a 3.59,3.59 0 0 1 -0.28,1.36 4.74,4.74 0 0 1 -0.59,0.94 c -0.14,0.21 -0.29,0.41 -0.42,0.62 a 11,11 0 0 0 -1.08,2.74 c -0.17,0.56 -0.32,1.09 -0.53,1.6 a 18.35,18.35 0 0 1 -1.66,2.95 l -0.09,0.13 v 0 a 32.72,32.72 0 0 0 -2.85,4 c -0.35,0.56 -0.72,1.13 -1.1,1.7 a 65.46,65.46 0 0 1 -4.22,5.59 l -0.23,0.27 A 17,17 0 0 0 24.2,62 c -0.2,0.37 -0.37,0.75 -0.55,1.13 -0.18,0.38 -0.24,0.54 -0.38,0.8 a 14.8,14.8 0 0 1 -1.67,2.49 l -0.19,0.24 a 8.54,8.54 0 0 0 -1.28,1.88 8.29,8.29 0 0 0 -0.39,1.08 5.7,5.7 0 0 1 -0.49,1.26 6,6 0 0 1 -0.43,0.6 3.13,3.13 0 0 0 -0.82,1.78 0.5,0.5 0 0 0 0.47,0.53 v 0 a 0.51,0.51 0 0 0 0.5,-0.47 2.45,2.45 0 0 1 0.63,-1.21 8,8 0 0 0 0.5,-0.69 6.7,6.7 0 0 0 0.59,-1.49 A 6.78,6.78 0 0 1 21,69 7.93,7.93 0 0 1 22.14,67.34 l 0.2,-0.24 a 15.77,15.77 0 0 0 1.78,-2.66 c 0.14,-0.28 0.27,-0.56 0.4,-0.85 0.13,-0.29 0.33,-0.71 0.52,-1.05 a 14.9,14.9 0 0 1 1.76,-2.38 l 0.23,-0.27 a 67.49,67.49 0 0 0 4.28,-5.68 c 0.36,-0.54 0.7,-1.07 1,-1.6 0,0.14 0,0.29 0,0.43 v 0 a 4.12,4.12 0 0 0 -0.82,2.2 10.84,10.84 0 0 0 0.07,2.61 41.94,41.94 0 0 1 -4.12,6.5 c -0.95,1.32 -1.94,2.69 -2.81,4.1 -0.53,0.85 -1,1.71 -1.52,2.58 A 35.59,35.59 0 0 1 18.93,77.27 0.5,0.5 0 0 0 19,78 0.55,0.55 0 0 0 19.34,78.13 0.51,0.51 0 0 0 19.71,77.96 36.33,36.33 0 0 0 24,71.53 c 0.49,-0.86 1,-1.72 1.5,-2.56 0.85,-1.38 1.83,-2.73 2.77,-4 a 51,51 0 0 0 3.58,-5.44 c 0,0.22 0.09,0.44 0.13,0.66 a 26.52,26.52 0 0 1 0.47,2.9 c 0,0.21 0,0.43 0,0.64 v 0 a 7.34,7.34 0 0 1 -1.34,2.54 l -0.23,0.27 a 5.65,5.65 0 0 0 -0.76,1.12 5.06,5.06 0 0 0 -0.32,1 c 0,0.14 -0.07,0.28 -0.11,0.42 a 10.17,10.17 0 0 1 -0.63,1.43 c -0.82,1.63 -1.68,3.33 -2.65,4.93 l -0.22,0.35 a 16.85,16.85 0 0 0 -1,1.87 8,8 0 0 0 -0.61,2.2 0.51,0.51 0 0 0 0.43,0.56 h 0.07 a 0.49,0.49 0 0 0 0.49,-0.43 7.2,7.2 0 0 1 0.54,-1.99 14.26,14.26 0 0 1 1,-1.74 l 0.23,-0.37 c 1,-1.63 1.85,-3.34 2.68,-5 a 10.44,10.44 0 0 0 0.69,-1.58 c 0,-0.16 0.09,-0.31 0.13,-0.47 a 4.2,4.2 0 0 1 0.25,-0.78 4.6,4.6 0 0 1 0.63,-0.9 l 0.24,-0.29 a 8.22,8.22 0 0 0 0.82,-1.23 12.43,12.43 0 0 0 0.47,1.42 l 0.13,0.35 a 26.2,26.2 0 0 1 0.81,2.65 7.37,7.37 0 0 0 -0.87,1.64 c -0.08,0.2 -0.16,0.39 -0.24,0.56 a 16,16 0 0 1 -2,3 17.25,17.25 0 0 0 -2.08,3.07 c -0.1,0.21 -0.2,0.42 -0.29,0.63 a 5.55,5.55 0 0 1 -0.87,1.53 0.49,0.49 0 0 0 0,0.7 0.46,0.46 0 0 0 0.33,0.13 0.49,0.49 0 0 0 0.37,-0.16 6.24,6.24 0 0 0 1,-1.79 c 0.09,-0.2 0.18,-0.41 0.28,-0.6 a 15.73,15.73 0 0 1 2,-2.89 16.43,16.43 0 0 0 2.15,-3.22 c 0.09,-0.18 0.17,-0.38 0.26,-0.59 0.09,-0.21 0.17,-0.4 0.26,-0.59 0,0.25 0.1,0.49 0.14,0.75 v 0.12 a 0.64,0.64 0 0 0 0.06,0.18 13.42,13.42 0 0 1 1.48,4.25 0.49,0.49 0 0 0 0.48,0.41 h 0.1 a 0.51,0.51 0 0 0 0.4,-0.59 14.71,14.71 0 0 0 -1.55,-4.5 v 0 a 25.67,25.67 0 0 0 -1.31,-5 l -0.13,-0.35 a 10.55,10.55 0 0 1 -0.51,-1.6 11.27,11.27 0 0 1 -0.15,-1.46 c 0,-0.23 0,-0.45 0,-0.67 A 27,27 0 0 0 33,60 c -0.1,-0.53 -0.2,-1 -0.29,-1.56 a 4.26,4.26 0 0 1 2.89,1.06 c 0.14,0.12 0.27,0.26 0.41,0.39 a 3.86,3.86 0 0 0 1.93,1.24 H 38 a 0.49,0.49 0 0 0 0.49,-0.41 0.51,0.51 0 0 0 -0.4,-0.59 3,3 0 0 1 -1.41,-1 l -0.44,-0.41 a 5.24,5.24 0 0 0 -3.7,-1.34 9.28,9.28 0 0 1 0,-2 3.13,3.13 0 0 1 0.64,-1.74 l 0.13,-0.21 a 0.48,0.48 0 0 0 0.06,-0.24 c 0.06,-1.74 1,-3.24 2.07,-4.83 a 18.3,18.3 0 0 0 1.76,-3.11 c 0.22,-0.56 0.39,-1.14 0.56,-1.69 a 9.71,9.71 0 0 1 1,-2.5 c 0.12,-0.19 0.25,-0.38 0.38,-0.56 a 6.91,6.91 0 0 0 0.69,-1.11 6.85,6.85 0 0 0 0.29,-3.52 v -0.11 a 58.55,58.55 0 0 1 -0.28,-8.21 18.43,18.43 0 0 0 3.36,3.24 21.48,21.48 0 0 1 2.8,2.58 20.39,20.39 0 0 1 2.23,3.5 17.8,17.8 0 0 0 2.88,4.2 v 0 a 8,8 0 0 0 0.93,0.8 12.28,12.28 0 0 0 1.42,0.87 6.48,6.48 0 0 1 2.31,1.8 7.19,7.19 0 0 1 0.5,1 c 0.11,0.24 0.23,0.49 0.36,0.73 a 10.6,10.6 0 0 0 3.08,3.14 14,14 0 0 1 2.27,2 14.2,14.2 0 0 1 1.45,2.3 9.13,9.13 0 0 0 2.8,3.57 c 0.23,0.14 0.47,0.27 0.71,0.4 a 4.86,4.86 0 0 1 1,0.65 5.15,5.15 0 0 1 0.47,0.56 5,5 0 0 0 0.58,0.67 5.38,5.38 0 0 0 2,1 10.33,10.33 0 0 1 1,0.39 9.36,9.36 0 0 1 2.68,2.42 8.63,8.63 0 0 0 3.56,2.86 0.47,0.47 0 0 0 0.16,0 0.50635956,0.50635956 0 0 0 0.16,-1 7.65,7.65 0 0 1 -3.12,-2.57 10.16,10.16 0 0 0 -3,-2.65 10,10 0 0 0 -1.07,-0.44 4.74,4.74 0 0 1 -1.63,-0.84 4.88,4.88 0 0 1 -0.47,-0.55 4.49,4.49 0 0 0 -0.58,-0.67 5,5 0 0 0 -1.22,-0.81 C 67.24,56.58 67.03,56.47 66.83,56.34 A 8.21,8.21 0 0 1 64.36,53.13 14.79,14.79 0 0 0 62.8,50.67 14.31,14.31 0 0 0 60.37,48.49 17.67,17.67 0 0 1 58.6,46.99 c 1.49,-1.35 1.94,-3.38 2.36,-5.35 0.07,-0.34 0.14,-0.67 0.22,-1 a 10.43,10.43 0 0 0 0.16,-1.08 5.41,5.41 0 0 1 0.25,-1.33 4.63,4.63 0 0 1 0.59,-1 5.4,5.4 0 0 0 0.76,-1.45 5.25,5.25 0 0 0 0.06,-1.52 c 0,-0.24 0,-0.46 0,-0.67 l 0.15,0.27 a 6.25,6.25 0 0 0 2.38,2.21 0.47,0.47 0 0 0 0.27,0.08 0.48,0.48 0 0 0 0.42,-0.23 0.5,0.5 0 0 0 -0.15,-0.69 5.46,5.46 0 0 1 -2,-1.85 3.33,3.33 0 0 0 -0.69,-1 7.81,7.81 0 0 1 0.72,-1.12 5.05,5.05 0 0 0 1.18,-2.59 5,5 0 0 0 -0.5,-2.18 10.8,10.8 0 0 1 -0.37,-1.09 2.67,2.67 0 0 1 0.13,-1.59 v 0 A 8.6,8.6 0 0 1 65.65,22 13.38,13.38 0 0 0 67,19.74 a 10.21,10.21 0 0 1 7.08,5.85 c 0.15,0.36 0.28,0.73 0.41,1.09 0.13,0.36 0.35,1 0.57,1.44 a 17.29,17.29 0 0 0 2.4,3.53 1.61,1.61 0 0 0 0.48,0.44 2,2 0 0 0 1.49,0 7.2,7.2 0 0 0 -0.09,1.23 c -0.24,0.51 -1.41,0.62 -2,0.59 a 0.52,0.52 0 0 0 -0.53,0.47 0.51,0.51 0 0 0 0.47,0.53 h 0.24 a 4.53,4.53 0 0 0 1.81,-0.35 q 0,0.56 0,1.11 a 7,7 0 0 0 -0.79,0.56 4.68,4.68 0 0 1 -1.75,1 0.49,0.49 0 0 0 -0.49,0.51 0.51,0.51 0 0 0 0.5,0.49 v 0 A 4.82,4.82 0 0 0 79.2,37 h 0.06 c 0,0.3 -0.06,0.59 -0.11,0.88 a 3.3,3.3 0 0 1 -0.25,0.85 3.82,3.82 0 0 1 -0.57,0.75 l -3.8,4.19 a 0.49,0.49 0 0 0 0,0.7 0.51,0.51 0 0 0 0.71,0 l 3.8,-4.19 a 4.64,4.64 0 0 0 0.73,-1 4,4 0 0 0 0.36,-1.18 17.82,17.82 0 0 0 0.28,-3.64 v -0.39 a 9.48,9.48 0 0 1 0,-1.68 38.16,38.16 0 0 0 3.59,8.45 11.91,11.91 0 0 0 1.43,2.06 c 0.2,0.22 0.42,0.44 0.63,0.65 a 9.36,9.36 0 0 1 0.82,0.86 8.89,8.89 0 0 1 0.87,1.5 l 2.47,4.87 a 0.41,0.41 0 0 0 0.07,0.11 10.53,10.53 0 0 1 1.71,2.41 3,3 0 0 1 0,1 21,21 0 0 0 0,2.38 10.2,10.2 0 0 0 0.87,3.74 12.76,12.76 0 0 0 1.74,2.47 8.52,8.52 0 0 1 1.89,3 0.49,0.49 0 0 0 0.48,0.36 h 0.14 a 0.51,0.51 0 0 0 0.39,-0.63 z M 52.8,30.72 c 0.07,0.27 0.13,0.54 0.2,0.84 a 27.88,27.88 0 0 1 -2.35,3.32 c -0.49,0.62 -0.95,1.23 -1.37,1.87 l -0.2,-0.36 c -0.17,-0.32 -0.35,-0.64 -0.53,-1 1.1,-1.98 2.35,-3.94 4.25,-4.67 z m -3,7 A 24.2,24.2 0 0 1 51.4,35.5 C 52,34.78 52.63,34 53.26,33 a 8.94,8.94 0 0 1 0.08,1.23 4.23,4.23 0 0 1 -1.22,3.13 4.28,4.28 0 0 0 -1.17,2 17.22,17.22 0 0 1 -1.12,-1.64 z m 15,-16.35 a 11,11 0 0 0 -1.18,1.9 c -2,0.93 -3.41,2.78 -4.81,4.58 -0.56,0.72 -1.09,1.41 -1.64,2 a 0.51,0.51 0 0 0 0,0.71 0.55,0.55 0 0 0 0.34,0.13 0.5,0.5 0 0 0 0.37,-0.17 c 0.58,-0.63 1.12,-1.33 1.69,-2.07 a 17.46,17.46 0 0 1 3.69,-3.86 3.75,3.75 0 0 0 0.09,1 7.39,7.39 0 0 0 0.31,0.94 l -0.89,0.88 -1.12,1.11 a 4.62,4.62 0 0 1 -1.11,0.93 l -0.34,0.14 a 2.81,2.81 0 0 0 -0.92,0.54 2.73,2.73 0 0 0 -0.65,1.36 v 0.17 a 6.44,6.44 0 0 1 -2.08,3.34 0.49,0.49 0 0 0 -0.07,0.7 0.51,0.51 0 0 0 0.39,0.19 0.47,0.47 0 0 0 0.31,-0.12 7.49,7.49 0 0 0 2.44,-3.77 l 0.05,-0.19 a 2,2 0 0 1 0.38,-0.89 2.1,2.1 0 0 1 0.6,-0.32 l 0.41,-0.18 a 5.5,5.5 0 0 0 1.38,-1.12 c 0.35,-0.36 0.73,-0.73 1.1,-1.1 l 0.57,-0.56 a 3,3 0 0 1 0.15,1 4.24,4.24 0 0 1 -1,2.07 8.08,8.08 0 0 0 -0.95,1.58 l -0.77,0.74 a 15.17,15.17 0 0 0 -1.74,1.83 30.77,30.77 0 0 0 -1.74,2.64 l -2.41,4 a 0.51,0.51 0 0 0 0.43,0.76 0.52,0.52 0 0 0 0.43,-0.24 l 2.41,-4 A 30.18,30.18 0 0 1 60.59,35.47 12.85,12.85 0 0 1 62,33.92 c 0,0.12 0,0.23 0,0.35 a 4.35,4.35 0 0 1 -0.1,1.32 4.52,4.52 0 0 1 -0.64,1.17 6.27,6.27 0 0 0 -0.66,1.24 6.43,6.43 0 0 0 -0.32,1.58 6,6 0 0 1 -0.14,1 c -0.07,0.34 -0.15,0.68 -0.22,1 -0.39,1.8 -0.79,3.66 -2,4.8 a 4.82,4.82 0 0 1 -0.4,-0.57 C 57.4,45.59 57.3,45.37 57.2,45.14 a 7.75,7.75 0 0 0 -0.58,-1.1 7.38,7.38 0 0 0 -2.65,-2.1 C 53.5,41.67 53.05,41.41 52.64,41.12 a 9.35,9.35 0 0 1 -0.75,-0.64 3.22,3.22 0 0 1 0.92,-2.31 5.15,5.15 0 0 0 1.56,-3.86 15.79,15.79 0 0 0 -0.58,-3.83 h 0.18 a 9.3,9.3 0 0 0 1,-0.22 c 1.63,-0.52 2.6,-1.91 3.55,-3.25 A 14.17,14.17 0 0 1 59.94,25.2 34.61,34.61 0 0 1 65.09,21 l 0.09,-0.06 z"
         id="path15" />
      <path
         style="fill:url(#linearGradient3772)"
         inkscape:connector-curvature="0"
         d="M 55.8,52.48 A 9.22,9.22 0 0 1 52.71,50 l -0.22,-0.28 a 5.61,5.61 0 0 0 -0.87,-1 6.84,6.84 0 0 0 -0.83,-0.57 6.92,6.92 0 0 1 -0.72,-0.48 5.81,5.81 0 0 1 -0.65,-0.73 l -0.25,-0.3 a 8.58,8.58 0 0 0 -4.29,-2.74 0.41,0.41 0 0 0 -0.11,0 0.51,0.51 0 0 0 -0.3,0 3.19,3.19 0 0 0 -1.47,1.44 4.87,4.87 0 0 1 -0.32,0.47 3.37,3.37 0 0 1 -1.16,1 0.51,0.51 0 0 0 -0.21,0.68 0.51,0.51 0 0 0 0.45,0.27 0.46,0.46 0 0 0 0.23,-0.06 4.51,4.51 0 0 0 1.5,-1.28 c 0.12,-0.17 0.24,-0.35 0.35,-0.53 a 4.82,4.82 0 0 1 0.54,-0.72 c 0.31,0.39 0.62,0.8 0.92,1.22 l -3.27,2.77 a 0.5,0.5 0 0 0 0.32,0.88 0.52,0.52 0 0 0 0.33,-0.12 l 3.18,-2.7 a 11.47,11.47 0 0 1 0.65,1.19 l -2.11,1.33 a 0.49,0.49 0 0 0 -0.16,0.69 0.51,0.51 0 0 0 0.42,0.23 0.5,0.5 0 0 0 0.27,-0.07 l 1.95,-1.23 c 0.06,0.2 0.12,0.4 0.17,0.61 l 0.05,0.29 c 0,0.18 0.08,0.37 0.13,0.55 l -0.76,0.56 a 0.5,0.5 0 0 0 -0.11,0.7 0.51,0.51 0 0 0 0.4,0.2 0.53,0.53 0 0 0 0.3,-0.09 l 0.57,-0.43 c 0.14,0.23 0.3,0.45 0.45,0.65 a 7.33,7.33 0 0 1 0.5,0.73 8.16,8.16 0 0 1 0.42,0.87 4.4,4.4 0 0 0 0.87,1.6 4.93,4.93 0 0 0 0.93,0.7 c 0.54,0.34 0.87,0.58 0.92,0.93 a 0.5,0.5 0 0 0 0.49,0.44 h 0.07 a 0.49,0.49 0 0 0 0.43,-0.56 2.42,2.42 0 0 0 -1.38,-1.65 4.07,4.07 0 0 1 -0.74,-0.55 3.4,3.4 0 0 1 -0.65,-1.24 5.45,5.45 0 0 0 -1,-1.82 4.42,4.42 0 0 1 -0.61,-1 4.12,4.12 0 0 1 -0.18,-0.75 l -0.07,-0.31 a 11.45,11.45 0 0 0 -2.25,-4.42 7.42,7.42 0 0 1 2.6,2 l 0.24,0.29 a 5.61,5.61 0 0 0 0.78,0.85 5.89,5.89 0 0 0 0.85,0.59 4.74,4.74 0 0 1 0.7,0.47 4.93,4.93 0 0 1 0.73,0.83 l 0.23,0.29 a 10.4,10.4 0 0 0 3.42,2.76 0.59,0.59 0 0 0 0.22,0 0.51305458,0.51305458 0 0 0 0.23,-1 z"
         id="path17" />
    </g>
  </g>
</svg>
